<!-- icon666.com - MILLIONS vector ICONS FREE --><svg id="Layer_1" viewBox="0 0 512 512" xmlns="http://www.w3.org/2000/svg" xmlns:xlink="http://www.w3.org/1999/xlink" data-name="Layer 1"><linearGradient id="linear-gradient" gradientUnits="userSpaceOnUse" x1="81.155" x2="408.095" y1="-34.839" y2="531.437"><stop offset="0" stop-color="#6755a4"></stop><stop offset=".176" stop-color="#6261a6"></stop><stop offset=".492" stop-color="#5480ad"></stop><stop offset=".908" stop-color="#3db2b7"></stop><stop offset="1" stop-color="#38beb9"></stop></linearGradient><path d="m133.611 259.335a4 4 0 0 1 4-4h218.623a4 4 0 1 1 0 8h-218.623a4 4 0 0 1 -4-4zm226.623 160.247a4 4 0 0 0 -4-4h-218.623a4 4 0 0 0 0 8h218.623a4 4 0 0 0 4-4zm133.88 20.94a71.558 71.558 0 0 1 -71.477 71.478h-266.963c-43.661 0-79.182-35.333-79.182-78.764v-370.63c-.563-30.077-25.06-54.606-54.606-54.606a4 4 0 0 1 0-8h325.15a71.559 71.559 0 0 1 71.478 71.478v150.822l34.17-34.17c9.468-9.47 19.5-9.449 29.017.065 9.513 9.513 9.535 19.547.065 29.017l-16.408 16.409.584.585a17.357 17.357 0 0 1 0 24.5l-24.182 24.178a4 4 0 0 1 -5.656-5.656l24.182-24.184a9.36 9.36 0 0 0 0-13.182l-.585-.585-41.187 41.188v156.057h71.6a4 4 0 0 1 4 4zm-196.876-67.864 23.532-8.873-14.659-14.659zm164.805-147.036-17.769-17.769-134.062 134.061 17.77 17.769zm-12.112-23.422 17.769 17.765 8.409-8.409c6.264-6.264 6.245-11.394-.064-17.7s-11.441-6.329-17.705-.065zm-294.257 301.8c35.232 0 63.895-28.476 63.895-63.478a4 4 0 0 1 4-4h186.945v-148.057l-79.7 79.7a4 4 0 0 1 -1.417.914l-17.074 6.438h43.914a4 4 0 0 1 0 8h-218.626a4 4 0 0 1 0-8h150l12.089-32.059h-162.089a4 4 0 0 1 0-8h167.743l32.062-32.058h-199.8a4 4 0 0 1 0-8h207.801l65.1-65.1v-158.822a63.55 63.55 0 0 0 -63.481-63.478h-294.722a62.862 62.862 0 0 1 13.575 10.4 64.029 64.029 0 0 1 18.6 44.132v370.704c.003 39.019 31.935 70.764 71.185 70.764zm330.315-59.478h-258.531a71.563 71.563 0 0 1 -38.753 59.478h233.932a63.56 63.56 0 0 0 63.352-59.478zm-320.632-307.208a82.145 82.145 0 1 1 82.143 82.145 82.239 82.239 0 0 1 -82.143-82.145zm38.081-11.914c-.754 4.081.377 7.939 3.026 10.322a5.466 5.466 0 0 0 6.333.5c3.985-2.471 6.229-9.234 8.6-16.394 3.676-11.08 8.184-24.634 22.1-26.732v-10.687a35.7 35.7 0 0 0 -24.756 14.865c-6.009 8.3-7.01 14.581-4.869 30.546a4 4 0 0 1 -7.93 1.063c-.382-2.853-.679-5.476-.872-7.937a13.8 13.8 0 0 0 -1.632 4.454zm72.788-28.17a34.7 34.7 0 0 0 -24.726-14.847v10.708c13.911 2.077 18.422 15.646 22.1 26.737 2.375 7.16 4.619 13.923 8.605 16.394a5.466 5.466 0 0 0 6.332-.5c2.648-2.384 3.78-6.242 3.026-10.323a13.786 13.786 0 0 0 -1.645-4.465c-.188 2.465-.483 5.092-.864 7.948a4 4 0 0 1 -3.96 3.471 4.052 4.052 0 0 1 -.535-.036 4 4 0 0 1 -3.435-4.494c2.107-15.765 1.1-22.055-4.898-30.595zm-62.196 56.87a96.39 96.39 0 0 0 2.379-10.735 13.37 13.37 0 0 1 -4.837 1.556c.1.371.2.73.308 1.108.741 2.641 1.489 5.315 2.15 8.071zm21.576-47.07c6.16 19.2-.658 33.113-8.807 43.468a16.118 16.118 0 0 0 4.024 7.357c5.5 6.244 12.216 8.521 16.679 8.573 4.464-.052 11.177-2.329 16.68-8.573a16.118 16.118 0 0 0 4.024-7.357c-8.15-10.356-14.968-24.275-8.806-43.473a13.21 13.21 0 0 0 -11.742-6.212h-.258a13.262 13.262 0 0 0 -11.794 6.213zm27.628 70.97a111.631 111.631 0 0 1 16.885 1.628c-.234-1.355-.569-2.794-.981-4.309a4 4 0 0 1 -.108-.393c-.69-2.478-1.554-5.141-2.484-7.979-.9-2.743-1.859-5.686-2.77-8.807a26.952 26.952 0 0 1 -3.592 5 35.711 35.711 0 0 1 -8.088 6.821v5.78q.627 1.119 1.138 2.259zm19.891-31.979c.105-.376.2-.733.307-1.1a13.357 13.357 0 0 1 -4.868-1.574 94.6 94.6 0 0 0 2.394 10.82c.665-2.777 1.42-5.474 2.167-8.143zm-17.114-23.677c-.308-.928-.611-1.825-.912-2.7a34.465 34.465 0 0 0 4.886 19.311c-.183-2.137-.277-4.33-.27-6.575-1.415-3.165-2.572-6.621-3.704-10.033zm-40.722 10.037q0 3.376-.285 6.6a34.478 34.478 0 0 0 4.9-19.34c-.3.877-.6 1.773-.912 2.7-1.13 3.419-2.283 6.876-3.703 10.043zm-10.4 47.248a111.543 111.543 0 0 1 16.882-1.629c.342-.762.719-1.516 1.138-2.262v-5.78a35.69 35.69 0 0 1 -8.088-6.821 26.828 26.828 0 0 1 -3.616-5.04c-.9 3.1-1.852 6.031-2.742 8.763a98 98 0 0 0 -3.579 12.772zm22.877 16.174a29.512 29.512 0 0 0 9.5 1.874 29.931 29.931 0 0 0 9.891-1.394 29.462 29.462 0 0 0 .571-7.3 3.987 3.987 0 0 1 -3.627-3.962v-11.55a25.6 25.6 0 0 1 -6.558.954h-.072a25.627 25.627 0 0 1 -6.557-.953v11.556a3.987 3.987 0 0 1 -3.627 3.962 29.208 29.208 0 0 0 .474 6.816zm22.934 14.456a73.8 73.8 0 0 0 31.723-14.012c-2.276-3.846-5.891-6.471-11.176-8.147-2.744-.87-9.9-1.765-15.726-2.026 1.115 8.264-1.131 16.826-4.821 24.185zm-58.124-14.012a73.82 73.82 0 0 0 31.724 14.012c-3.687-7.362-5.933-15.921-4.822-24.185-5.82.261-12.981 1.156-15.725 2.026-5.283 1.676-8.898 4.3-11.174 8.147zm44.924 15.212c1.125 0 2.242-.035 3.356-.085a48.149 48.149 0 0 0 3.38-6.193 37.843 37.843 0 0 1 -6.12.511q-.55 0-1.1-.016a37.561 37.561 0 0 1 -6.363-.744 48.034 48.034 0 0 0 3.49 6.442c1.117.05 2.234.085 3.357.085zm-74.146-74.145a73.926 73.926 0 0 0 23.074 53.675 24.867 24.867 0 0 1 10.117-8.618 41.487 41.487 0 0 1 1.564-9.043c.5-9.3-1.753-17.353-3.935-25.146-.484-1.725-.974-3.5-1.437-5.274a12.87 12.87 0 0 1 -1.628-1.241c-4.732-4.259-6.8-10.883-5.542-17.721a20.345 20.345 0 0 1 9.578-14.038c.732-6.088 2.841-11.417 7.118-17.325a43.406 43.406 0 0 1 35.405-18.422h.315a42.52 42.52 0 0 1 34.789 18.469c4.185 5.958 6.277 11.269 7.031 17.245a20.339 20.339 0 0 1 9.632 14.07c1.262 6.838-.809 13.463-5.542 17.722a12.868 12.868 0 0 1 -1.624 1.228c-.465 1.778-.956 3.558-1.441 5.287-2.185 7.807-4.439 15.878-3.93 25.2a41.076 41.076 0 0 1 1.559 8.992 24.867 24.867 0 0 1 10.117 8.618 74.122 74.122 0 1 0 -125.217-53.675z" fill="url(#linear-gradient)"></path></svg>