<!-- icon666.com - MILLIONS vector ICONS FREE --><svg viewBox="-29 0 455 455.7" xmlns="http://www.w3.org/2000/svg" xmlns:xlink="http://www.w3.org/1999/xlink"><linearGradient id="a"><stop offset="0" stop-color="#00efd1"></stop><stop offset="1" stop-color="#00acea"></stop></linearGradient><linearGradient id="b" gradientTransform="matrix(1 0 0 -1 -57.128 485.85)" gradientUnits="userSpaceOnUse" x1="256" x2="256" xlink:href="#a" y1="498" y2="31.164"></linearGradient><linearGradient id="c" gradientTransform="matrix(1 0 0 -1 -57.128 485.85)" gradientUnits="userSpaceOnUse" x1="298.49" x2="298.49" xlink:href="#a" y1="498" y2="31.164"></linearGradient><linearGradient id="d" gradientTransform="matrix(1 0 0 -1 -57.128 485.85)" gradientUnits="userSpaceOnUse" x1="260.842" x2="260.842" xlink:href="#a" y1="498" y2="31.164"></linearGradient><linearGradient id="e" gradientTransform="matrix(1 0 0 -1 -57.128 485.85)" gradientUnits="userSpaceOnUse" x1="301.003" x2="301.003" xlink:href="#a" y1="498" y2="31.164"></linearGradient><linearGradient id="f" gradientTransform="matrix(1 0 0 -1 -57.128 485.85)" gradientUnits="userSpaceOnUse" x1="298.842" x2="298.842" xlink:href="#a" y1="498" y2="31.164"></linearGradient><path d="m308.371094 2.125c-1.316406-1.359375-3.128906-2.125-5.019532-2.125h-176c-20.425781.0234375-36.980468 16.574219-37 37v33.238281h-53c-20.425781.023438-36.976562 16.574219-37 37v311.460938c.023438 20.425781 16.574219 36.976562 37 37h233.039063c20.425781-.023438 36.976563-16.574219 37-37v-33.265625h53c20.425781-.023438 36.976563-16.578125 37-37v-251.777344c0-1.820312-.710937-3.566406-1.980469-4.875zm1.976562 22.136719 63.488282 65.398437h-54.183594c-5.132813-.007812-9.292969-4.167968-9.300782-9.300781v-56.097656zm-16.957031 394.4375c-.015625 12.699219-10.304687 22.988281-23 23h-233.035156c-12.699219-.011719-22.988281-10.300781-23-23v-311.464844c.011719-12.695313 10.300781-22.984375 23-23h53v264.203125c.019531 20.421875 16.574219 36.976562 37 37h166.035156zm67-47.265625h-233.035156c-12.699219-.015625-22.988281-10.304688-23-23v-311.4375c.011719-12.695313 10.300781-22.984375 23-23h169v66.359375c.011719 12.863281 10.4375 23.285156 23.296875 23.300781h63.738281v244.777344c-.015625 12.695312-10.304687 22.984375-23 23zm0 0" fill="url(#b)"></path><path d="m335.171875 311.148438h-187.621094c-3.863281 0-7 3.136718-7 7 0 3.867187 3.136719 7 7 7h187.621094c3.867187 0 7-3.132813 7-7 0-3.863282-3.132813-7-7-7zm0 0" fill="url(#c)"></path><path d="m147.550781 281.210938h112.320313c3.867187 0 7-3.132813 7-7 0-3.863282-3.132813-7-7-7h-112.320313c-3.863281 0-7 3.136718-7 7 0 3.867187 3.136719 7 7 7zm0 0" fill="url(#d)"></path><path d="m173.367188 229.40625c.042968 3.28125 2.714843 5.921875 6 5.921875h.0625l129.675781-1.332031c1.59375-.015625 3.113281-.667969 4.230469-1.808594 1.113281-1.140625 1.726562-2.675781 1.707031-4.269531l-.472657-35.917969c.84375-10.246094-2.667968-20.371094-9.667968-27.898438-7.003906-7.523437-16.851563-11.753906-27.128906-11.652343l-7.425782.074219c-2.683594.027343-5.023437 1.832031-5.730468 4.421874l-7.539063 27.636719-3.9375-6.867187 4.945313-16.371094c.550781-1.816406.207031-3.785156-.925782-5.3125-1.132812-1.523438-2.917968-2.421875-4.816406-2.421875h-.0625l-18.777344.191406c-1.910156.019531-3.695312.945313-4.8125 2.496094-1.113281 1.550781-1.425781 3.539063-.835937 5.355469l5.3125 16.367187-2.910157 5.757813-7.136718-26.207032c-.710938-2.609374-3.082032-4.421874-5.789063-4.421874h-8.429687c-10.28125.101562-20.046875 4.53125-26.894532 12.199218-6.851562 7.671875-10.15625 17.871094-9.105468 28.101563zm70.867187-63.707031-1.183594 3.914062-1.265625-3.890625zm-53.355469 7.734375c4.589844-5.183594 11.15625-8.191406 18.082032-8.28125h3.78125l10.03125 36.84375c.601562 2.214844 2.410156 3.890625 4.664062 4.320312 2.253906.429688 4.550781-.464844 5.925781-2.296875.210938-.28125.398438-.582031.554688-.894531l9.34375-18.488281 10.585937 18.460937c1.207032 2.101563 3.5625 3.273438 5.96875 2.964844 2.40625-.304688 4.386719-2.03125 5.027344-4.371094l10.148438-37.207031 2.894531-.03125c6.941406-.070313 13.589843 2.804687 18.296875 7.90625 4.707031 5.105469 7.035156 11.960937 6.40625 18.878906-.019532.207031-.027344.414063-.023438.621094l.390625 30.199219-117.675781 1.210937-.390625-30.246093c-.003906-.199219-.015625-.394532-.039063-.589844-.804687-6.902344 1.390626-13.820313 6.027344-19zm0 0" fill="url(#e)"></path><path d="m241.929688 151.933594h.363281c19.558593-.199219 35.25-16.210938 35.054687-35.769532l-.28125-27.476562c-.191406-15.316406-12.722656-27.59375-28.035156-27.472656l-31.433594.320312c-6.425781.0625-11.582031 5.328125-11.519531 11.753906l.445313 43.597657c.21875 19.40625 16 35.023437 35.40625 35.046875zm-19.558594-66.875c-1.449219.765625-2.835938 1.644531-4.148438 2.628906l-.066406-6.648438c1.316406 1.351563 2.722656 2.699219 4.214844 4.019532zm36.28125 47.847656c-6.625 6.765625-16.675782 8.871094-25.460938 5.335938-8.785156-3.535157-14.574218-12.011719-14.671875-21.480469l-.109375-10.527344c3.410156-7.164063 8.871094-11.519531 15.902344-12.671875 6.816406 3.945312 14.53125 6.082031 22.410156 6.214844 2.835938 0 5.667969-.308594 8.441406-.921875l.175782 17.429687c.082031 6.210938-2.324219 12.195313-6.683594 16.621094zm-9.503906-59.699219c7.816406-.0625 14.5 5.609375 15.710937 13.332031-15.75 4.839844-29.386719-5.09375-37.320313-13.109374zm0 0" fill="url(#f)"></path></svg>