<!-- icon666.com - MILLIONS vector ICONS FREE --><svg id="svg8" viewBox="0 0 44.005543 44" xmlns="http://www.w3.org/2000/svg" xmlns:xlink="http://www.w3.org/1999/xlink" xmlns:svg="http://www.w3.org/2000/svg"><linearGradient id="linearGradient9427" gradientUnits="userSpaceOnUse" x1="1.999" x2="45.999" y1="2" y2="46"><stop id="stop7572" offset="0" stop-color="#f0f"></stop><stop id="stop7574" offset="1" stop-color="#00f"></stop></linearGradient><g id="layer2" transform="translate(-242.001 -2)"><g id="g19260" fill="url(#linearGradient9427)" transform="translate(240.001)"><path id="rect14513" d="m6 2c-2.1986974 0-4 1.8013026-4 4v36c0 2.198697 1.8013025 4 4 4h28c2.198697 0 4-1.801303 4-4v-2.050781h-2v2.050781c0 1.125295-.874705 2-2 2h-28c-1.1252957 0-2-.874705-2-2v-36c0-1.1252959.8747041-2 2-2h28c1.125295 0 2 .8747043 2 2v4h2v-4c0-2.1986975-1.801303-4-4-4z"></path><path id="path14783" d="m20.000583 6c-5.510991 0-10 4.489009-10 10s4.489009 10 10 10c5.510992 0 10-4.489009 10-10s-4.489008-10-10-10zm0 2c4.430114 0 8 3.569886 8 8 0 1.705692-.531792 3.282136-1.435547 4.578125-.640078-1.723784-1.940345-3.132111-3.591797-3.912109.637253-.709354 1.027344-1.644952 1.027344-2.666016 0-2.197288-1.802712-4-4-4s-4 1.802712-4 4c0 1.021125.390025 1.956646 1.027344 2.666016-1.651561.779956-2.951755 2.188306-3.591797 3.912109-.903755-1.295989-1.435547-2.872433-1.435547-4.578125 0-4.430114 3.569887-8 8-8zm0 4c1.116411 0 2 .883589 2 2s-.883589 2-2 2-2-.883589-2-2 .883589-2 2-2zm0 6c2.531517 0 4.606506 1.856175 4.949219 4.289062-1.360488 1.070847-3.076806 1.710938-4.949219 1.710938-1.871713 0-3.588972-.638861-4.949219-1.708984.34189-2.433832 2.417036-4.291016 4.949219-4.291016z"></path><path id="path15336" d="m12 29v2h17v-2z"></path><path id="path15340" d="m12 34v2h17v-2z"></path><path id="path15346" d="m12 39v2h17v-2z"></path><path id="path15352" d="m8 29v2h2v-2z"></path><path id="path15358" d="m8 34v2h2v-2z"></path><path id="path15364" d="m8 39v2h2v-2z"></path><path id="rect16242" d="m39.190036 10.361328c-2.580314 7.517697-5.162575 15.035268-7.74414 22.552734-.04828.139786-.06496.28854-.04883.435547l.65625 5.962891c.09304.848512 1.137852 1.197968 1.722657.576172l4.072265-4.337891c.09687-.103109.170764-.225598.216797-.359375l7.744142-22.552734c1.418764-4.2122141-5.270065-6.3059215-6.619141-2.277344zm4.728516 1.628906-.966797 2.814454-2.837891-.976563.966797-2.814453c.560124-1.6163716 3.390201-.694235 2.837891.976562zm-4.453125 3.728516 2.835937.976562-6.058593 17.642579-2.439454 2.599609-.394531-3.583984z" stroke-linejoin="round"></path></g></g></svg>