<!-- icon666.com - MILLIONS vector ICONS FREE --><svg id="Layer_2" viewBox="0 0 512 512" xmlns="http://www.w3.org/2000/svg" data-name="Layer 2"><g id="_07.Icon" data-name="07.Icon"><g id="UserFile"><rect fill="#1e88e5" height="512" rx="150" width="512"></rect><path id="UserFile-2" d="m279.06 156.92v-85.92l114.24 114.83h-85.33c-15.96 0-28.91-12.94-28.91-28.91zm114.24 43.36v182.9c0 31.93-25.89 57.81-57.81 57.81h-158.98c-31.93 0-57.81-25.89-57.81-57.81v-254.37c0-31.93 25.89-57.81 57.81-57.81h88.11v85.92c0 23.91 19.45 43.36 43.36 43.36h85.33zm-184.06 59.04c0 25.82 20.93 46.75 46.75 46.75s46.75-20.93 46.75-46.75-20.93-46.75-46.75-46.75-46.75 20.93-46.75 46.75zm134.69 120.34-13.83-43.16c-5.18-16.15-22.72-24.77-38.67-19.01-9.4 3.4-21.21 5.97-35.43 5.97s-26.03-2.57-35.43-5.97c-15.95-5.77-33.5 2.85-38.67 19.01l-13.83 43.16c-3.87 12.07 5.14 24.41 17.81 24.41h140.24c12.67 0 21.68-12.34 17.81-24.41z" fill="#fff" data-name="UserFile"></path></g></g></svg>