<!-- icon666.com - MILLIONS vector ICONS FREE --><svg viewBox="-48 0 472 472" xmlns="http://www.w3.org/2000/svg" xmlns:xlink="http://www.w3.org/1999/xlink"><linearGradient id="a"><stop offset="0" stop-color="#00efd1"></stop><stop offset="1" stop-color="#00acea"></stop></linearGradient><linearGradient id="b" gradientUnits="userSpaceOnUse" x1="188" x2="188" xlink:href="#a" y1="-8" y2="474.597"></linearGradient><linearGradient id="c" gradientUnits="userSpaceOnUse" x1="118.5" x2="118.5" xlink:href="#a" y1="-8" y2="474.597"></linearGradient><linearGradient id="d" gradientUnits="userSpaceOnUse" x1="118" x2="118" xlink:href="#a" y1="-8" y2="474.597"></linearGradient><linearGradient id="e" gradientUnits="userSpaceOnUse" x1="229.533" x2="229.533" xlink:href="#a" y1="-8" y2="474.597"></linearGradient><linearGradient id="f" gradientUnits="userSpaceOnUse" x1="257.74" x2="257.74" xlink:href="#a" y1="-8" y2="474.597"></linearGradient><linearGradient id="g" gradientUnits="userSpaceOnUse" x1="183.249" x2="183.249" xlink:href="#a" y1="-8" y2="474.597"></linearGradient><path d="m266.722656 2.488281c-1.503906-1.570312-3.570312-2.4648435-5.742187-2.488281h-212.75c-26.566407.0664062-48.101563 21.550781-48.230469 48.117188v375.765624c.128906 26.566407 21.664062 48.050782 48.230469 48.117188h279.539062c26.566407-.066406 48.101563-21.550781 48.230469-48.117188v-305.75c-.042969-2.101562-.894531-4.109374-2.375-5.601562zm2.277344 25.359375 79.855469 82.152344h-67.875c-3.167969.027344-6.210938-1.214844-8.460938-3.441406-2.25-2.226563-3.515625-5.261719-3.519531-8.425782zm91 396.035156c-.121094 17.730469-14.5 32.058594-32.230469 32.117188h-279.539062c-17.730469-.058594-32.109375-14.386719-32.230469-32.117188v-375.765624c.121094-17.730469 14.5-32.058594 32.230469-32.117188h204.769531v82.132812c.007812 7.40625 2.960938 14.507813 8.210938 19.734376 5.25 5.226562 12.359374 8.152343 19.769531 8.132812h79.019531zm0 0" fill="url(#b)"></path><path d="m135.523438 201c-.488282-.023438-.976563-.003906-1.460938.0625 8.75-6.761719 12.226562-18.339844 8.65625-28.804688-3.574219-10.460937-13.40625-17.492187-24.464844-17.492187-11.054687.003906-20.886718 7.039063-24.457031 17.503906-3.566406 10.464844-.085937 22.039063 8.667969 28.796875-.488282-.066406-.976563-.089844-1.464844-.066406-6.355469-.027344-12.460938 2.476562-16.964844 6.957031-4.503906 4.484375-7.035156 10.578125-7.035156 16.933594v24.417969c0 2.085937.84375 4.082031 2.34375 5.53125 1.496094 1.449218 3.515625 2.226562 5.597656 2.160156h66.632813c4.417969 0 8.425781-3.273438 8.425781-7.691406v-24.417969c0-13.261719-11.210938-23.890625-24.476562-23.890625zm-17.261719-30.308594c5.4375-.003906 9.847656 4.40625 9.847656 9.847656 0 5.4375-4.410156 9.847657-9.847656 9.847657-5.441407 0-9.851563-4.410157-9.851563-9.847657.007813-5.4375 4.414063-9.84375 9.851563-9.847656zm0 35.699219c3.773437.003906 7.503906-.828125 10.921875-2.429687-.035156.046874-.074219.085937-.109375.132812-2.527344 3.4375-6.542969 5.472656-10.816407 5.472656-4.269531 0-8.285156-2.035156-10.8125-5.472656-.035156-.046875-.074218-.085938-.109374-.132812 3.417968 1.601562 7.148437 2.429687 10.925781 2.425781zm25.738281 34.609375h-51v-16.109375c-.007812-3.265625 1.957031-6.210937 4.972656-7.460937 10.320313 9.851562 26.21875 10.871093 37.714844 2.421874 1.011719-.726562 1.976562-1.519531 2.886719-2.367187 3.011719 1.328125 5.027343 4.230469 5.214843 7.515625h.210938zm0 0" fill="url(#c)"></path><path d="m58 276h120c4.417969 0 8-3.582031 8-8v-123c0-4.417969-3.582031-8-8-8h-120c-4.417969 0-8 3.582031-8 8v123c0 4.417969 3.582031 8 8 8zm8-123h104v106h-104zm0 0" fill="url(#d)"></path><path d="m197.976562 181h63.113282c4.417968 0 8-3.582031 8-8s-3.582032-8-8-8h-63.113282c-4.417968 0-8 3.582031-8 8s3.582032 8 8 8zm0 0" fill="url(#e)"></path><path d="m189.976562 206c0 4.417969 3.582032 8 8 8h119.523438c4.417969 0 8-3.582031 8-8s-3.582031-8-8-8h-119.523438c-4.417968 0-8 3.582031-8 8zm0 0" fill="url(#f)"></path><path d="m317.5 231h-119.523438c-4.417968 0-8 3.582031-8 8s3.582032 8 8 8h119.523438c4.417969 0 8-3.582031 8-8s-3.582031-8-8-8zm0 0" fill="url(#f)"></path><g fill="url(#g)"><path d="m308 362h-249.5c-4.417969 0-8 3.582031-8 8s3.582031 8 8 8h249.5c4.417969 0 8-3.582031 8-8s-3.582031-8-8-8zm0 0"></path><path d="m308 308h-249.5c-4.417969 0-8 3.582031-8 8s3.582031 8 8 8h249.5c4.417969 0 8-3.582031 8-8s-3.582031-8-8-8zm0 0"></path></g></svg>