<!-- icon666.com - MILLIONS vector ICONS FREE --><svg id="Layer_1" viewBox="0 0 512 512" xmlns="http://www.w3.org/2000/svg" xmlns:xlink="http://www.w3.org/1999/xlink" data-name="Layer 1"><linearGradient id="GradientFill_1" gradientUnits="userSpaceOnUse" x1="256.248" x2="256.249" y1="512.004" y2="-.002"><stop offset="0" stop-color="#6c54a3"></stop><stop offset="1" stop-color="#00b1d2"></stop></linearGradient><path d="m256.249 0c141.383 0 256 114.623 256 256.007s-114.615 256-256 256-256-114.623-256-256 114.623-256.007 256-256.007zm8.051 262.567a3.751 3.751 0 0 0 3.751 3.751h92.119a3.751 3.751 0 1 0 0-7.5h-92.115a3.756 3.756 0 0 0 -3.751 3.75zm0-23.411a3.757 3.757 0 0 0 3.751 3.751h92.119a3.751 3.751 0 0 0 0-7.5h-92.115a3.757 3.757 0 0 0 -3.751 3.751zm0-23.421a3.751 3.751 0 0 0 3.751 3.751h92.119a3.749 3.749 0 1 0 0-7.5h-92.115a3.753 3.753 0 0 0 -3.751 3.746zm0-23.411a3.756 3.756 0 0 0 3.751 3.75h46.599a3.751 3.751 0 1 0 0-7.5h-46.595a3.756 3.756 0 0 0 -3.751 3.751zm-108.217-12.307v94.857h82.648v-94.857zm-3.751 102.359h90.15a3.748 3.748 0 0 0 3.751-3.751v-102.359a3.749 3.749 0 0 0 -3.751-3.746h-90.15a3.749 3.749 0 0 0 -3.751 3.746v102.359a3.748 3.748 0 0 0 3.751 3.751zm67.055-24.81v-18.321a13.2 13.2 0 0 0 -13.181-13.182h-17.6a13.2 13.2 0 0 0 -13.177 13.182v18.321h6.122v-16.329a3.749 3.749 0 1 1 7.5 0v16.329h17.316v-16.329a3.751 3.751 0 0 1 7.5 0v16.329zm-27.926-57.736a7.486 7.486 0 0 0 -1.768 5.889c.38 3.524 2.8 7.449 6.189 10a2.445 2.445 0 0 0 3.05 0c3.38-2.554 5.814-6.479 6.189-10a7.468 7.468 0 0 0 -1.769-5.889 8.317 8.317 0 0 0 -11.891 0zm15.4 18.75a22.119 22.119 0 0 0 5.715-12.061 14.88 14.88 0 0 0 -3.536-11.583 15.8 15.8 0 0 0 -23.26 0 14.937 14.937 0 0 0 -3.541 11.583 22.134 22.134 0 0 0 5.724 12.061 20.694 20.694 0 0 0 -20.027 20.665v22.072a3.747 3.747 0 0 0 3.747 3.751h51.458a3.753 3.753 0 0 0 3.751-3.751v-22.072a20.7 20.7 0 0 0 -20.031-20.665zm180.019 86.774v-155.817h-261.255v155.817zm.621-163.319h-262.501a6.888 6.888 0 0 0 -6.872 6.877v157.067a6.882 6.882 0 0 0 6.872 6.877h262.5a6.879 6.879 0 0 0 6.876-6.877v-157.067a6.885 6.885 0 0 0 -6.876-6.877zm21.247 180.265v-178.827a15.828 15.828 0 0 0 -15.8-15.812h-273.387a15.833 15.833 0 0 0 -15.812 15.812v178.827a15.829 15.829 0 0 0 15.812 15.807h273.384a15.824 15.824 0 0 0 15.8-15.807zm-118.2 51.039a29.827 29.827 0 0 1 -13.286-25.239v-2.5h-42.023v2.5a29.825 29.825 0 0 1 -13.289 25.238l-16.026 11h100.649l-16.022-11zm102.397-253.175h-273.384a23.335 23.335 0 0 0 -23.314 23.309v178.827a23.334 23.334 0 0 0 23.314 23.3h108.177v2.5a22.509 22.509 0 0 1 -10.038 19.054l-19.5 13.383a6.192 6.192 0 0 0 3.5 11.3h109.092a6.193 6.193 0 0 0 3.5-11.3l-19.5-13.383a22.5 22.5 0 0 1 -10.028-19.054v-2.5h108.181a23.332 23.332 0 0 0 23.305-23.3v-178.827a23.333 23.333 0 0 0 -23.305-23.309z" fill="url(#GradientFill_1)" fill-rule="evenodd"></path></svg>