<!-- icon666.com - MILLIONS vector ICONS FREE --><svg id="Layer_1" viewBox="0 0 512 512" xmlns="http://www.w3.org/2000/svg" xmlns:xlink="http://www.w3.org/1999/xlink" data-name="Layer 1"><linearGradient id="GradientFill_1" gradientUnits="userSpaceOnUse" x1="255.998" x2="255.999" y1="453.411" y2="58.592"><stop offset="0" stop-color="#6c54a3"></stop><stop offset="1" stop-color="#00b1d2"></stop></linearGradient><path d="m436.737 363.234a6.3 6.3 0 0 0 -6.286-6.3h-154.628a6.294 6.294 0 1 0 0 12.587h154.628a6.3 6.3 0 0 0 6.286-6.286zm0-39.3a6.289 6.289 0 0 0 -6.286-6.3h-154.628a6.294 6.294 0 1 0 0 12.587h154.628a6.3 6.3 0 0 0 6.286-6.286zm0-39.327a6.3 6.3 0 0 0 -6.286-6.287h-154.628a6.294 6.294 0 1 0 0 12.588h154.628a6.3 6.3 0 0 0 6.286-6.3zm-167.215-39.307a6.3 6.3 0 0 0 6.3 6.287h78.218a6.29 6.29 0 0 0 0-12.58h-78.217a6.3 6.3 0 0 0 -6.3 6.293zm-42.922 138.594v-159.244h-138.753v159.244zm6.3-171.831a6.3 6.3 0 0 1 6.3 6.294v171.823a6.3 6.3 0 0 1 -6.3 6.287h-151.34a6.294 6.294 0 0 1 -6.3-6.287v-171.823a6.291 6.291 0 0 1 6.3-6.294zm-112.57 112.008a22.156 22.156 0 0 1 22.117-22.131h29.553a22.147 22.147 0 0 1 22.118 22.131v30.747h-9.258v-27.4a6.3 6.3 0 0 0 -12.594 0v27.4h-29.066v-27.4a6.3 6.3 0 0 0 -12.6 0v27.4h-10.27zm26.911-66.171a13.973 13.973 0 0 1 19.96 0 12.552 12.552 0 0 1 2.972 9.887c-.636 5.908-4.715 12.509-10.387 16.788a4.1 4.1 0 0 1 -5.116 0c-5.679-4.279-9.758-10.88-10.394-16.788a12.57 12.57 0 0 1 2.965-9.887zm-33.2 109.508a6.29 6.29 0 0 1 -6.308-6.3v-37.037a34.745 34.745 0 0 1 33.634-34.683c-5.322-5.908-8.859-13.195-9.609-20.26a25.053 25.053 0 0 1 5.929-19.424 26.492 26.492 0 0 1 39.063 0 24.939 24.939 0 0 1 5.929 19.424c-.75 7.065-4.279 14.352-9.6 20.26a34.738 34.738 0 0 1 33.626 34.683v37.041a6.289 6.289 0 0 1 -6.3 6.3zm190.059-275.847v18.881h160.52v-18.881zm-6.3 31.461a6.3 6.3 0 0 1 -6.294-6.293v-31.469a6.305 6.305 0 0 1 6.294-6.3h173.121a6.289 6.289 0 0 1 6.286 6.3v31.469a6.288 6.288 0 0 1 -6.286 6.293zm-115.433-31.361a9.337 9.337 0 1 0 9.344 9.33 9.342 9.342 0 0 0 -9.344-9.33zm0 31.261a21.925 21.925 0 1 1 21.933-21.931 21.956 21.956 0 0 1 -21.932 21.931zm-67.159-31.261a9.337 9.337 0 1 0 9.344 9.33 9.332 9.332 0 0 0 -9.344-9.33zm0 31.261a21.925 21.925 0 1 1 21.932-21.931 21.951 21.951 0 0 1 -21.932 21.931zm-67.174-31.261a9.337 9.337 0 1 0 9.344 9.33 9.348 9.348 0 0 0 -9.344-9.33zm0 31.261a21.925 21.925 0 1 1 21.946-21.931 21.96 21.96 0 0 1 -21.946 21.931zm-21.495-64.33h458.927a26.568 26.568 0 0 1 26.534 26.539v58.451l-512-1.228v-57.223a26.569 26.569 0 0 1 26.54-26.539zm458.927 394.818h-458.927a26.569 26.569 0 0 1 -26.539-26.539v-271.93l512 1.229v270.7a26.567 26.567 0 0 1 -26.534 26.54z" fill="url(#GradientFill_1)" fill-rule="evenodd"></path></svg>