<!-- icon666.com - MILLIONS vector ICONS FREE --><svg id="Layer_1" viewBox="0 0 512 512" xmlns="http://www.w3.org/2000/svg" xmlns:xlink="http://www.w3.org/1999/xlink" data-name="Layer 1"><linearGradient id="GradientFill_1" gradientUnits="userSpaceOnUse" x1="256.249" x2="256.25" y1="512.004" y2="-.002"><stop offset="0" stop-color="#6c54a3"></stop><stop offset="1" stop-color="#00b1d2"></stop></linearGradient><path d="m256.249 0c141.384 0 256 114.623 256 256.007s-114.615 256-256 256-256-114.623-256-256 114.624-256.007 256-256.007zm107.668 319.877a3.751 3.751 0 0 0 -3.751-3.751h-92.111a3.749 3.749 0 1 0 0 7.5h92.111a3.75 3.75 0 0 0 3.751-3.747zm0-23.411a3.747 3.747 0 0 0 -3.751-3.751h-92.111a3.749 3.749 0 1 0 0 7.5h92.111a3.749 3.749 0 0 0 3.751-3.746zm0-23.421a3.754 3.754 0 0 0 -3.751-3.751h-92.111a3.751 3.751 0 0 0 0 7.5h92.111a3.754 3.754 0 0 0 3.751-3.751zm-99.617-23.421a3.751 3.751 0 0 0 3.751 3.752h46.6a3.749 3.749 0 0 0 0-7.5h-46.6a3.753 3.753 0 0 0 -3.751 3.746zm-25.568 82.56v-94.857h-82.653v94.857zm3.751-102.359h-90.151a3.748 3.748 0 0 0 -3.751 3.751v102.359a3.749 3.749 0 0 0 3.751 3.746h90.155a3.753 3.753 0 0 0 3.751-3.746v-102.359a3.751 3.751 0 0 0 -3.751-3.751zm-67.056 66.726v18.316h6.118v-16.33a3.751 3.751 0 0 1 7.5 0v16.33h17.316v-16.33a3.751 3.751 0 0 1 7.5 0v16.33h5.519v-18.316a13.2 13.2 0 0 0 -13.182-13.182h-17.598a13.193 13.193 0 0 0 -13.173 13.182zm16.031-39.42a7.5 7.5 0 0 0 -1.769 5.894c.38 3.519 2.809 7.453 6.189 10a2.45 2.45 0 0 0 3.05 0c3.38-2.549 5.809-6.483 6.185-10a7.464 7.464 0 0 0 -1.769-5.894 8.321 8.321 0 0 0 -11.886 0zm-19.778 65.238h51.454a3.748 3.748 0 0 0 3.751-3.751v-22.067a20.7 20.7 0 0 0 -20.031-20.661 22.111 22.111 0 0 0 5.72-12.07 14.855 14.855 0 0 0 -3.537-11.574 15.788 15.788 0 0 0 -23.264 0 14.927 14.927 0 0 0 -3.537 11.574 22.155 22.155 0 0 0 5.725 12.07 20.7 20.7 0 0 0 -20.031 20.661v22.067a3.745 3.745 0 0 0 3.75 3.751zm113.22-164.328v11.248h95.624v-11.248zm-3.751 18.745h103.125a3.746 3.746 0 0 0 3.751-3.746v-18.75a3.747 3.747 0 0 0 -3.751-3.751h-103.126a3.753 3.753 0 0 0 -3.751 3.751v18.75a3.752 3.752 0 0 0 3.751 3.746zm-68.763-18.686a5.562 5.562 0 1 0 5.564 5.56 5.562 5.562 0 0 0 -5.564-5.56zm0 18.621a13.062 13.062 0 1 0 -13.056-13.061 13.075 13.075 0 0 0 13.056 13.061zm-40-18.621a5.562 5.562 0 1 0 5.56 5.56 5.567 5.567 0 0 0 -5.56-5.56zm0 18.621a13.062 13.062 0 1 0 -13.061-13.061 13.081 13.081 0 0 0 13.061 13.061zm-40.018-18.621a5.562 5.562 0 1 0 5.564 5.56 5.569 5.569 0 0 0 -5.564-5.56zm0 18.621a13.062 13.062 0 1 0 -13.061-13.061 13.082 13.082 0 0 0 13.061 13.061zm-12.807-38.321a15.829 15.829 0 0 0 -15.811 15.812v34.088l305 .733v-34.819a15.829 15.829 0 0 0 -15.809-15.814zm273.38 235.2a15.829 15.829 0 0 0 15.808-15.812v-161.256l-305-.732v161.988a15.829 15.829 0 0 0 15.812 15.812zm-273.38 7.5h273.38a23.337 23.337 0 0 0 23.309-23.313v-203.573a23.337 23.337 0 0 0 -23.309-23.314h-273.38a23.338 23.338 0 0 0 -23.313 23.313v203.575a23.338 23.338 0 0 0 23.313 23.312z" fill="url(#GradientFill_1)" fill-rule="evenodd"></path></svg>