<!-- icon666.com - MILLIONS vector ICONS FREE --><svg viewBox="0 -4 496 496" xmlns="http://www.w3.org/2000/svg" xmlns:xlink="http://www.w3.org/1999/xlink"><linearGradient id="lg1"><stop offset="0" stop-color="#003f8a"></stop><stop offset=".518" stop-color="#00d7df"></stop><stop offset="1" stop-color="#006df0"></stop></linearGradient><linearGradient id="linear0" gradientUnits="userSpaceOnUse" x1="46.384" x2="544.128" xlink:href="#lg1" y1="541.12" y2="43.376"></linearGradient><linearGradient id="linear1" gradientUnits="userSpaceOnUse" x1="96.632" x2="594.376" xlink:href="#lg1" y1="591.368" y2="93.624"></linearGradient><linearGradient id="linear2" gradientUnits="userSpaceOnUse" x1="-63.368" x2="434.376" xlink:href="#lg1" y1="431.368" y2="-66.376"></linearGradient><linearGradient id="linear3" gradientUnits="userSpaceOnUse" x1="-31.368" x2="466.376" xlink:href="#lg1" y1="463.368" y2="-34.376"></linearGradient><linearGradient id="linear5" gradientUnits="userSpaceOnUse" x1=".632" x2="498.376" xlink:href="#lg1" y1="495.368" y2="-2.376"></linearGradient><linearGradient id="linear7" gradientUnits="userSpaceOnUse" x1="32.632" x2="530.376" xlink:href="#lg1" y1="527.368" y2="29.624"></linearGradient><linearGradient id="linear9" gradientUnits="userSpaceOnUse" x1="64.632" x2="562.376" xlink:href="#lg1" y1="559.368" y2="61.624"></linearGradient><linearGradient id="linear13" gradientUnits="userSpaceOnUse" x1="128.632" x2="626.376" xlink:href="#lg1" y1="623.368" y2="125.624"></linearGradient><linearGradient id="linear15" gradientUnits="userSpaceOnUse" x1="160.632" x2="658.376" xlink:href="#lg1" y1="655.368" y2="157.624"></linearGradient><linearGradient id="linear17" gradientUnits="userSpaceOnUse" x1="168.632" x2="666.376" xlink:href="#lg1" y1="663.368" y2="165.624"></linearGradient><linearGradient id="linear18" gradientUnits="userSpaceOnUse" x1="198.632" x2="696.376" xlink:href="#lg1" y1="693.368" y2="195.624"></linearGradient><path d="m488 256h-424v-64h40c4.417969 0 8-3.582031 8-8v-48h16v8c0 4.417969 3.582031 8 8 8h25.9375c1.230469 3.65625 2.703125 7.222656 4.414062 10.679688l-18.351562 18.335937c-3.125 3.125-3.125 8.1875 0 11.3125l27.671875 27.671875c3.179687 2.996094 8.140625 2.996094 11.320313 0l18.328124-18.335938c3.457032 1.707032 7.027344 3.179688 10.679688 4.40625v25.929688c0 4.417969 3.582031 8 8 8h48c4.417969 0 8-3.582031 8-8v-25.929688c3.65625-1.234374 7.222656-2.710937 10.679688-4.421874l18.328124 18.351562c1.5 1.503906 3.535157 2.347656 5.660157 2.347656s4.160156-.84375 5.660156-2.347656l27.671875-27.671875c3.125-3.125 3.125-8.1875 0-11.3125l-18.335938-18.335937c1.707032-3.457032 3.175782-7.023438 4.398438-10.679688h25.9375c4.417969 0 8-3.582031 8-8v-48c0-4.417969-3.582031-8-8-8h-25.9375c-1.230469-3.65625-2.703125-7.222656-4.414062-10.679688l18.351562-18.335937c3.125-3.125 3.125-8.1875 0-11.3125l-27.671875-27.671875c-3.179687-2.996094-8.140625-2.996094-11.320313 0l-18.328124 18.351562c-3.457032-1.710937-7.023438-3.1875-10.679688-4.421874v-25.929688c0-4.417969-3.582031-8-8-8h-48c-4.417969 0-8 3.582031-8 8v25.929688c-3.65625 1.234374-7.222656 2.710937-10.679688 4.421874l-18.328124-18.351562c-1.5-1.503906-3.535157-2.347656-5.660157-2.347656s-4.160156.84375-5.660156 2.347656l-27.671875 27.671875c-3.125 3.125-3.125 8.1875 0 11.3125l18.335938 18.335937c-1.707032 3.457032-3.175782 7.023438-4.398438 10.679688h-25.9375c-4.417969 0-8 3.582031-8 8v24h-24c-4.417969 0-8 3.582031-8 8v48h-40c-4.417969 0-8 3.582031-8 8v72h-40c-4.417969 0-8 3.582031-8 8v216c0 4.417969 3.582031 8 8 8h480c4.417969 0 8-3.582031 8-8v-216c0-4.417969-3.582031-8-8-8zm-344-152h23.894531c3.652344 0 6.84375-2.46875 7.753907-6.007812 1.628906-6.335938 4.140624-12.40625 7.464843-18.039063 1.855469-3.144531 1.347657-7.148437-1.234375-9.730469l-16.886718-16.894531 16.34375-16.34375 16.886718 16.894531c2.582032 2.582032 6.585938 3.089844 9.730469 1.234375 5.632813-3.324219 11.710937-5.839843 18.046875-7.464843 3.535156-.914063 6.003906-4.101563 6-7.753907v-23.894531h32v23.894531c-.003906 3.652344 2.464844 6.839844 6 7.753907 6.335938 1.625 12.414062 4.140624 18.046875 7.464843 3.144531 1.855469 7.148437 1.347657 9.730469-1.234375l16.886718-16.894531 16.34375 16.34375-16.886718 16.894531c-2.582032 2.582032-3.089844 6.585938-1.234375 9.730469 3.324219 5.632813 5.835937 11.703125 7.464843 18.039063.910157 3.539062 4.101563 6.007812 7.753907 6.007812h23.894531v32h-23.894531c-3.652344 0-6.84375 2.46875-7.753907 6.007812-1.628906 6.335938-4.140624 12.40625-7.464843 18.039063-1.855469 3.144531-1.347657 7.148437 1.234375 9.730469l16.886718 16.894531-16.34375 16.34375-16.886718-16.894531c-2.582032-2.582032-6.585938-3.089844-9.730469-1.234375-5.632813 3.324219-11.710937 5.839843-18.046875 7.464843-3.535156.914063-6.003906 4.101563-6 7.753907v23.894531h-32v-23.894531c.003906-3.652344-2.464844-6.839844-6-7.753907-6.335938-1.625-12.414062-4.140624-18.046875-7.464843-3.144531-1.855469-7.148437-1.347657-9.730469 1.234375l-16.886718 16.894531-16.34375-16.34375 16.886718-16.894531c2.582032-2.582032 3.089844-6.585938 1.234375-9.730469-3.324219-5.632813-5.835937-11.703125-7.464843-18.039063-.910157-3.539062-4.101563-6.007812-7.753907-6.007812h-23.894531zm336 368h-464v-200h464zm0 0" fill="url(#linear0)"></path><path d="m160 464h176c4.417969 0 8-3.582031 8-8v-32c0-4.417969-3.582031-8-8-8h-176c-4.417969 0-8 3.582031-8 8v32c0 4.417969 3.582031 8 8 8zm8-32h160v16h-160zm0 0" fill="url(#linear1)"></path><path d="m32 296v32c0 4.417969 3.582031 8 8 8h32c4.417969 0 8-3.582031 8-8v-32c0-4.417969-3.582031-8-8-8h-32c-4.417969 0-8 3.582031-8 8zm16 8h16v16h-16zm0 0" fill="url(#linear2)"></path><path d="m104 336h32c4.417969 0 8-3.582031 8-8v-32c0-4.417969-3.582031-8-8-8h-32c-4.417969 0-8 3.582031-8 8v32c0 4.417969 3.582031 8 8 8zm8-32h16v16h-16zm0 0" fill="url(#linear3)"></path><path d="m72 352h-32c-4.417969 0-8 3.582031-8 8v32c0 4.417969 3.582031 8 8 8h32c4.417969 0 8-3.582031 8-8v-32c0-4.417969-3.582031-8-8-8zm-8 32h-16v-16h16zm0 0" fill="url(#linear3)"></path><path d="m104 400h32c4.417969 0 8-3.582031 8-8v-32c0-4.417969-3.582031-8-8-8h-32c-4.417969 0-8 3.582031-8 8v32c0 4.417969 3.582031 8 8 8zm8-32h16v16h-16zm0 0" fill="url(#linear5)"></path><path d="m168 336h32c4.417969 0 8-3.582031 8-8v-32c0-4.417969-3.582031-8-8-8h-32c-4.417969 0-8 3.582031-8 8v32c0 4.417969 3.582031 8 8 8zm8-32h16v16h-16zm0 0" fill="url(#linear5)"></path><path d="m232 336h32c4.417969 0 8-3.582031 8-8v-32c0-4.417969-3.582031-8-8-8h-32c-4.417969 0-8 3.582031-8 8v32c0 4.417969 3.582031 8 8 8zm8-32h16v16h-16zm0 0" fill="url(#linear7)"></path><path d="m168 400h32c4.417969 0 8-3.582031 8-8v-32c0-4.417969-3.582031-8-8-8h-32c-4.417969 0-8 3.582031-8 8v32c0 4.417969 3.582031 8 8 8zm8-32h16v16h-16zm0 0" fill="url(#linear7)"></path><path d="m232 400h32c4.417969 0 8-3.582031 8-8v-32c0-4.417969-3.582031-8-8-8h-32c-4.417969 0-8 3.582031-8 8v32c0 4.417969 3.582031 8 8 8zm8-32h16v16h-16zm0 0" fill="url(#linear9)"></path><path d="m296 336h32c4.417969 0 8-3.582031 8-8v-32c0-4.417969-3.582031-8-8-8h-32c-4.417969 0-8 3.582031-8 8v32c0 4.417969 3.582031 8 8 8zm8-32h16v16h-16zm0 0" fill="url(#linear9)"></path><path d="m360 336h32c4.417969 0 8-3.582031 8-8v-32c0-4.417969-3.582031-8-8-8h-32c-4.417969 0-8 3.582031-8 8v32c0 4.417969 3.582031 8 8 8zm8-32h16v16h-16zm0 0" fill="url(#linear1)"></path><path d="m296 400h32c4.417969 0 8-3.582031 8-8v-32c0-4.417969-3.582031-8-8-8h-32c-4.417969 0-8 3.582031-8 8v32c0 4.417969 3.582031 8 8 8zm8-32h16v16h-16zm0 0" fill="url(#linear1)"></path><path d="m360 400h32c4.417969 0 8-3.582031 8-8v-32c0-4.417969-3.582031-8-8-8h-32c-4.417969 0-8 3.582031-8 8v32c0 4.417969 3.582031 8 8 8zm8-32h16v16h-16zm0 0" fill="url(#linear13)"></path><path d="m424 336h32c4.417969 0 8-3.582031 8-8v-32c0-4.417969-3.582031-8-8-8h-32c-4.417969 0-8 3.582031-8 8v32c0 4.417969 3.582031 8 8 8zm8-32h16v16h-16zm0 0" fill="url(#linear13)"></path><path d="m424 400h32c4.417969 0 8-3.582031 8-8v-32c0-4.417969-3.582031-8-8-8h-32c-4.417969 0-8 3.582031-8 8v32c0 4.417969 3.582031 8 8 8zm8-32h16v16h-16zm0 0" fill="url(#linear15)"></path><path d="m248 160c22.089844 0 40-17.910156 40-40s-17.910156-40-40-40-40 17.910156-40 40c.027344 22.082031 17.917969 39.972656 40 40zm0-64c13.253906 0 24 10.746094 24 24s-10.746094 24-24 24-24-10.746094-24-24 10.746094-24 24-24zm0 0" fill="url(#linear2)"></path><path d="m360 448h64c4.417969 0 8-3.582031 8-8s-3.582031-8-8-8h-64c-4.417969 0-8 3.582031-8 8s3.582031 8 8 8zm0 0" fill="url(#linear17)"></path><path d="m456 432h-8c-4.417969 0-8 3.582031-8 8s3.582031 8 8 8h8c4.417969 0 8-3.582031 8-8s-3.582031-8-8-8zm0 0" fill="url(#linear18)"></path></svg>