<!-- icon666.com - MILLIONS vector ICONS FREE --><svg id="Layer_1" viewBox="0 0 512 512" xmlns="http://www.w3.org/2000/svg" xmlns:xlink="http://www.w3.org/1999/xlink" data-name="Layer 1"><linearGradient id="GradientFill_1" gradientUnits="userSpaceOnUse" x1="255.998" x2="255.998" y1="457.667" y2="54.326"><stop offset="0" stop-color="#6c54a3"></stop><stop offset="1" stop-color="#00b1d2"></stop></linearGradient><path d="m41.622 111.048a20.074 20.074 0 1 0 -20.074-20 20.079 20.079 0 0 0 20.074 20zm0-27.5a7.465 7.465 0 1 1 -7.494 7.5 7.453 7.453 0 0 1 7.494-7.5zm59.23 27.5a20.074 20.074 0 1 0 -20.074-20 20.078 20.078 0 0 0 20.074 20zm0-27.5a7.465 7.465 0 1 1 -7.48 7.5 7.452 7.452 0 0 1 7.48-7.5zm59.229 27.5a20.074 20.074 0 1 0 -20.081-20 20.085 20.085 0 0 0 20.081 20zm0-27.5a7.465 7.465 0 1 1 -7.479 7.5 7.463 7.463 0 0 1 7.479-7.5zm101.8 27.646h152.649a6.316 6.316 0 0 0 6.3-6.286v-27.864a6.317 6.317 0 0 0 -6.3-6.287h-152.649a6.313 6.313 0 0 0 -6.3 6.287v27.861a6.312 6.312 0 0 0 6.3 6.286zm6.3-27.789h140.063v15.213h-140.062v-15.218zm63.058 191.24-45.339 45.36a6.3 6.3 0 0 1 -8.886-8.929l40.877-40.863-40.877-40.791a6.3 6.3 0 0 1 0-8.93 6.2 6.2 0 0 1 8.886 0l45.342 45.363a6.157 6.157 0 0 1 0 8.787zm-158.221-45.22-40.892 40.791 40.892 40.863a6.3 6.3 0 1 1 -8.9 8.929l-45.328-45.366a6.108 6.108 0 0 1 -1.843-4.429 5.949 5.949 0 0 1 1.843-4.358l45.328-45.363a6.219 6.219 0 0 1 8.9 0 6.343 6.343 0 0 1 0 8.93zm80.546-19.217-45.283 124.442a6.312 6.312 0 0 1 -5.908 4.072 7.518 7.518 0 0 1 -2.158-.357 6.292 6.292 0 0 1 -3.757-8.072l45.292-124.446a6.3 6.3 0 0 1 11.815 4.358zm-230.894-155.881h404.7a22.673 22.673 0 0 1 22.653 22.646v50.864l-450.023-1.144v-49.72a22.677 22.677 0 0 1 22.67-22.646zm-22.67 323.973a22.754 22.754 0 0 0 22.67 22.788h323.072c-.85-2.072-1.621-4-2.329-6.072l-18.723-3.929a6.277 6.277 0 0 1 -4.994-6.144v-34.29a6.336 6.336 0 0 1 4.994-6.144l18.723-3.929a78.085 78.085 0 0 1 3.787-9.144l-10.43-16.074a6.238 6.238 0 0 1 .836-7.858l24.2-24.218a6.3 6.3 0 0 1 7.872-.857l16.081 10.43a83.019 83.019 0 0 1 9.13-3.786l3.986-18.717a6.212 6.212 0 0 1 6.151-5h34.226a6.207 6.207 0 0 1 6.151 5l4 18.717c.2.071.414.143.614.214v-148.949l-450.017-1.071zm512 1.5v-24l-17.31-3.715a6.189 6.189 0 0 1 -4.722-4.357 71.686 71.686 0 0 0 -5.672-13.717 6.326 6.326 0 0 1 .243-6.429l9.637-14.859-16.988-16.931-14.859 9.644a6.672 6.672 0 0 1 -6.444.286 64.488 64.488 0 0 0 -13.665-5.722 6.331 6.331 0 0 1 -4.379-4.715l-3.68-17.36h-24.031l-3.694 17.36a6.311 6.311 0 0 1 -4.372 4.715 67.808 67.808 0 0 0 -13.666 5.644 6.471 6.471 0 0 1 -6.436-.215l-14.86-9.644-16.995 16.931 9.644 14.859a6.305 6.305 0 0 1 .25 6.429 70.737 70.737 0 0 0 -5.672 13.717 6.208 6.208 0 0 1 -4.729 4.357l-17.309 3.722v24l17.309 3.715a6.328 6.328 0 0 1 4.729 4.358 71.677 71.677 0 0 0 5.671 13.715 6.307 6.307 0 0 1 -.25 6.43l-9.644 14.859 16.995 17 14.86-9.644a6.3 6.3 0 0 1 6.436-.286 68.625 68.625 0 0 0 13.666 5.644 6.424 6.424 0 0 1 4.372 4.715l3.694 17.359h24.031l3.68-17.359a6.446 6.446 0 0 1 4.379-4.715 68.092 68.092 0 0 0 13.666-5.644 6.318 6.318 0 0 1 6.444.286l14.859 9.644 16.988-17-9.637-14.859a6.327 6.327 0 0 1 -.243-6.43 71.2 71.2 0 0 0 5.665-13.716 6.328 6.328 0 0 1 4.729-4.358zm-89.863-57.436a45.435 45.435 0 1 1 -45.437 45.505 45.49 45.49 0 0 1 45.441-45.506zm0 78.3a32.862 32.862 0 1 1 32.863-32.795 32.907 32.907 0 0 1 -32.862 32.79z" fill="url(#GradientFill_1)" fill-rule="evenodd"></path></svg>