<!-- icon666.com - MILLIONS vector ICONS FREE --><svg id="Layer_1" viewBox="0 0 512 512" xmlns="http://www.w3.org/2000/svg" xmlns:xlink="http://www.w3.org/1999/xlink" data-name="Layer 1"><linearGradient id="GradientFill_1" gradientUnits="userSpaceOnUse" x1="256.002" x2="256.003" y1="511.978" y2="-.021"><stop offset="0" stop-color="#6c54a3"></stop><stop offset="1" stop-color="#00b1d2"></stop></linearGradient><path d="m256-.02c141.377 0 256 114.658 256 256.034s-114.619 255.964-256 255.964-256-114.587-256-255.964 114.614-256.034 256-256.034zm49.763 256.02a49.759 49.759 0 1 0 -49.763 49.747 49.845 49.845 0 0 0 49.763-49.747zm10.153 0a59.915 59.915 0 1 0 -59.916 59.9 59.955 59.955 0 0 0 59.916-59.9zm22.473 18.1 17.278-3.129a1.256 1.256 0 0 0 1.092-1.27v-27.394a1.3 1.3 0 0 0 -1.092-1.315l-17.278-3.084a5.11 5.11 0 0 1 -4-3.673 80.6 80.6 0 0 0 -7.591-18.274 5.15 5.15 0 0 1 .25-5.442l10.021-14.42a1.259 1.259 0 0 0 -.154-1.678l-19.354-19.363a1.323 1.323 0 0 0 -1.691-.136l-14.421 10.021a5.053 5.053 0 0 1 -5.4.227 81.277 81.277 0 0 0 -18.311-7.573 5.059 5.059 0 0 1 -3.641-3.99l-3.111-17.277a1.259 1.259 0 0 0 -1.3-1.089h-27.372a1.259 1.259 0 0 0 -1.3 1.089l-3.106 17.277a5.073 5.073 0 0 1 -3.646 3.99 81.277 81.277 0 0 0 -18.311 7.573 5.061 5.061 0 0 1 -5.405-.227l-14.416-10.021a1.271 1.271 0 0 0 -1.691.136l-19.359 19.363a1.269 1.269 0 0 0 -.149 1.678l10.021 14.42a5.148 5.148 0 0 1 .25 5.442 81.2 81.2 0 0 0 -7.591 18.274 5.11 5.11 0 0 1 -4 3.673l-17.277 3.084a1.294 1.294 0 0 0 -1.088 1.315v27.393a1.25 1.25 0 0 0 1.088 1.27l17.277 3.129a5.127 5.127 0 0 1 4 3.627 80.285 80.285 0 0 0 7.591 18.32 5.066 5.066 0 0 1 -.25 5.4l-10.021 14.42a1.265 1.265 0 0 0 .149 1.678l19.357 19.356a1.277 1.277 0 0 0 1.691.181l14.416-10.021a4.868 4.868 0 0 1 2.9-.908 4.926 4.926 0 0 1 2.5.635 81.326 81.326 0 0 0 18.311 7.619 5.008 5.008 0 0 1 3.646 3.99l3.106 17.277a1.3 1.3 0 0 0 1.3 1.089h27.375a1.3 1.3 0 0 0 1.3-1.089l3.118-17.273a5 5 0 0 1 3.641-3.99 81.422 81.422 0 0 0 18.311-7.619 5.059 5.059 0 0 1 5.4.273l14.425 10.021a1.273 1.273 0 0 0 1.687-.181l19.354-19.363a1.255 1.255 0 0 0 .154-1.678l-10.021-14.42a5.072 5.072 0 0 1 -.25-5.4 80.51 80.51 0 0 0 7.591-18.32 5.127 5.127 0 0 1 4-3.627zm4.88 9.432 14.193-2.54a11.5 11.5 0 0 0 9.455-11.291v-27.394a11.427 11.427 0 0 0 -9.455-11.291l-14.193-2.54a89.073 89.073 0 0 0 -6.086-14.692l8.231-11.881a11.447 11.447 0 0 0 -1.306-14.647l-19.364-19.363a11.45 11.45 0 0 0 -14.665-1.315l-11.849 8.253a90.646 90.646 0 0 0 -14.692-6.122l-2.553-14.193a11.486 11.486 0 0 0 -11.3-9.432h-27.371a11.486 11.486 0 0 0 -11.3 9.432l-2.553 14.193a90.945 90.945 0 0 0 -14.692 6.122l-11.85-8.253a11.456 11.456 0 0 0 -14.669 1.315l-19.35 19.363a11.437 11.437 0 0 0 -1.311 14.647l8.235 11.881a89.175 89.175 0 0 0 -6.09 14.692l-14.193 2.54a11.428 11.428 0 0 0 -9.451 11.291v27.393a11.5 11.5 0 0 0 9.451 11.291l14.193 2.54a90.859 90.859 0 0 0 6.09 14.692l-8.235 11.836a11.5 11.5 0 0 0 1.311 14.692l19.354 19.363a11.512 11.512 0 0 0 14.669 1.315l11.85-8.253a90.461 90.461 0 0 0 14.692 6.076l2.553 14.194a11.483 11.483 0 0 0 11.3 9.477h27.375a11.483 11.483 0 0 0 11.3-9.477l2.553-14.194a90.535 90.535 0 0 0 14.692-6.076l11.849 8.253a11.506 11.506 0 0 0 14.665-1.315l19.364-19.363a11.509 11.509 0 0 0 1.306-14.692l-8.231-11.836a91.566 91.566 0 0 0 6.086-14.692zm-202.817 85.8a158.977 158.977 0 0 0 92.8 45.665 162.135 162.135 0 0 0 99.558-19.454 5.1 5.1 0 0 0 1.914-6.938 5.049 5.049 0 0 0 -6.92-1.905 150.514 150.514 0 0 1 -180.167-24.532c-58.542-58.543-58.542-153.771 0-212.313s153.793-58.542 212.336 0c56.6 56.592 58.474 147.513 5.609 206.372v-40.4a5.077 5.077 0 1 0 -10.153 0v52.92a5.072 5.072 0 0 0 5.074 5.079h52.924a5.079 5.079 0 0 0 0-10.158h-40.851a160.314 160.314 0 1 0 -232.124 5.668z" fill="url(#GradientFill_1)" fill-rule="evenodd"></path></svg>