<!-- icon666.com - MILLIONS vector ICONS FREE --><svg enable-background="new 0 0 512 512" viewBox="0 0 512 512" xmlns="http://www.w3.org/2000/svg" xmlns:xlink="http://www.w3.org/1999/xlink"><pattern id="New_Pattern_Swatch_1" height="14.593" overflow="visible" patternUnits="userSpaceOnUse" viewBox="0 -14.593 14.593 14.593" width="14.593" x="179.673" y="-694.643"><g><path d="m0-14.593h14.593v14.593h-14.593z" fill="none"></path><g><path d="m0-14.593h14.593v14.593h-14.593z" fill="#d7e9ff"></path></g></g></pattern><pattern id="New_Pattern_Swatch_2" height="14.593" overflow="visible" patternUnits="userSpaceOnUse" viewBox="0 -14.593 14.593 14.593" width="14.593" x="179.673" y="-694.643"><g><path d="m0-14.593h14.593v14.593h-14.593z" fill="none"></path><g><path d="m0-14.593h14.593v14.593h-14.593z" fill="#94c2ff"></path></g></g></pattern><pattern id="SVGID_1_" patternTransform="matrix(10.448 0 0 10.448 78373.445 57115.07)" xlink:href="#New_Pattern_Swatch_1"></pattern><pattern id="SVGID_2_" patternTransform="matrix(10.448 0 0 10.448 78373.445 57115.07)" xlink:href="#New_Pattern_Swatch_2"></pattern><g id="_x31_1_Project"><g><g><path d="m453.57 103.462v384.305c0 10.485-8.5 18.985-18.985 18.985h-357.171c-10.485 0-18.985-8.5-18.985-18.985v-463.53c0-10.485 8.5-18.985 18.985-18.985h277.945z" fill="url(#SVGID_1_)"></path><g><g><path d="m364.579 372.897 7.238-23.707-24.596-12.679c1.368-12.61.072-25.068-3.54-36.717l21.711-17.151-11.632-21.956-26.29 8.447c-7.708-9.522-17.317-17.556-28.54-23.465l3.222-27.484-23.77-7.258-12.679 24.596c-12.609-1.368-25.068-.071-36.717 3.54l-17.152-21.711-21.911 11.714 8.428 26.353c-9.297 6.743-17.538 17.254-23.446 28.478l-27.484-3.222-7.238 23.707 24.596 12.679c-1.369 12.609-.072 25.068 3.54 36.717l-21.711 17.152 11.651 21.892 26.417-8.408c7.645 9.503 17.254 17.538 28.414 23.426l-3.241 27.547 23.77 7.258 12.699-24.659c12.61 1.369 25.068.072 36.717-3.54l17.152 21.711 21.892-11.651-8.428-26.354c9.503-7.645 17.537-17.254 23.446-28.477zm-126.303 11.823c-31.967-9.76-49.949-43.649-40.189-75.616 9.799-32.093 43.605-50.031 75.572-40.271s50.051 43.542 40.252 75.635c-9.76 31.967-43.668 50.013-75.635 40.252z" fill="#fff"></path></g></g></g><g><path d="m355.359 5.251h-2.344v85.924c2 1.316 4.161 3.794 4.552 6.142.079.474.264.914.385 1.374.107.061.212.126.32.183 1.605.515 3.249.885 4.919 1.137 3.66.42 7.356.729 10.922 1.638 2.06.525 3.674 1.844 5.047 3.393h74.41v-1.58z" fill="url(#SVGID_2_)"></path></g><g fill="#116fff"><path d="m275.187 263.841c-34.315-10.487-71.326 8.469-82.094 43.741-10.611 34.732 8.892 71.521 43.659 82.135 34.616 10.57 71.532-8.925 82.155-43.72 10.596-34.707-9.02-71.565-43.72-82.156zm33.731 79.104c-8.898 29.125-39.761 45.719-69.116 36.782-29.222-8.921-45.641-39.853-36.721-69.095 9.003-29.469 39.945-45.691 69.054-36.802 29.192 8.912 45.69 39.919 36.783 69.115z"></path><path d="m374.208 344.547-21.472-11.07c.765-10.734-.26-21.386-3.061-31.762l18.957-14.973c1.979-1.566 2.556-4.321 1.377-6.545l-11.631-21.952c-1.189-2.24-3.821-3.296-6.214-2.53l-22.952 7.372c-7.091-8.137-15.371-14.947-24.686-20.299l2.811-23.998c.296-2.505-1.25-4.867-3.663-5.601l-23.768-7.254c-2.423-.755-5.015.352-6.168 2.602l-11.07 21.472c-10.723-.76-21.391.26-31.762 3.061l-14.973-18.957c-1.566-1.979-4.321-2.576-6.566-1.367l-21.911 11.718c-2.224 1.189-3.28 3.796-2.51 6.198l7.31 22.87c-7.525 6.198-14.56 14.805-20.238 24.768l-23.993-2.811c-2.464-.27-4.867 1.245-5.601 3.663l-7.239 23.707c-.74 2.413.357 5.01 2.602 6.168l21.472 11.07c-.765 10.723.26 21.381 3.066 31.762l-18.957 14.973c-1.979 1.566-2.561 4.326-1.372 6.555l11.652 21.891c1.184 2.219 3.77 3.255 6.198 2.525l23.069-7.346c7.025 8.106 15.269 14.902 24.574 20.263l-2.831 24.054c-.296 2.51 1.245 4.872 3.663 5.607l23.773 7.259c.505.158 1.02.23 1.525.23 1.913 0 3.729-1.056 4.642-2.831l11.091-21.534c10.734.77 21.386-.26 31.762-3.066l14.968 18.957c1.556 1.979 4.321 2.551 6.555 1.372l21.891-11.652c2.229-1.189 3.29-3.796 2.52-6.203l-7.356-23.003c8.122-7.045 14.927-15.31 20.284-24.635l23.998 2.811c2.479.306 4.872-1.245 5.601-3.663l7.234-23.707c.74-2.419-.357-5.011-2.601-6.169zm-13.351 22.656-23.156-2.714c-2.163-.265-4.229.847-5.229 2.755-5.489 10.428-12.922 19.457-22.1 26.839-1.684 1.357-2.357 3.607-1.699 5.663l7.096 22.197-14.187 7.55-14.448-18.289c-1.342-1.694-3.576-2.393-5.652-1.75-11.239 3.495-22.88 4.612-34.599 3.336-2.143-.209-4.224.888-5.209 2.801l-10.703 20.784-15.427-4.714 2.734-23.207c.25-2.148-.842-4.224-2.75-5.234-10.407-5.494-19.422-12.922-26.783-22.079-1.352-1.689-3.597-2.357-5.658-1.704l-22.263 7.086-7.555-14.192 18.289-14.448c1.694-1.342 2.388-3.586 1.75-5.647-3.489-11.254-4.612-22.901-3.336-34.609.235-2.148-.877-4.219-2.801-5.209l-20.722-10.683 4.693-15.366 23.156 2.714c2.183.265 4.229-.842 5.229-2.755 5.933-11.269 13.703-20.743 21.886-26.681 1.826-1.326 2.597-3.673 1.908-5.821l-7.101-22.202 14.223-7.606 14.437 18.284c1.342 1.694 3.581 2.398 5.647 1.75 11.239-3.479 22.87-4.596 34.614-3.336 2.138.209 4.214-.888 5.204-2.801l10.683-20.717 15.427 4.709-2.714 23.156c-.25 2.143.842 4.224 2.755 5.229 10.412 5.479 19.462 12.922 26.911 22.125 1.357 1.678 3.597 2.342 5.658 1.689l22.13-7.106 7.545 14.238-18.299 14.453c-1.694 1.342-2.388 3.586-1.75 5.647 3.484 11.244 4.607 22.891 3.336 34.614-.235 2.148.877 4.214 2.801 5.204l20.717 10.683z"></path><path d="m77.416.026c-13.351 0-24.212 10.861-24.212 24.212v463.53c0 13.346 10.861 24.207 24.212 24.207h357.169c13.351 0 24.212-10.861 24.212-24.207v-384.304c0-.855-.563-2.726-1.53-3.694l-98.216-98.214m1.53 16.304 80.38 80.38h-66.616c-7.591 0-13.764-6.173-13.764-13.764zm-296.929 469.908v-463.531c0-7.591 6.173-13.764 13.764-13.764h272.718v74.003c0 13.351 10.861 24.212 24.212 24.212h74.003v379.08c0 7.586-6.173 13.759-13.764 13.759h-357.169c-7.591 0-13.764-6.173-13.764-13.759z"></path><path d="m132.956 56.816h123.044c2.887 0 5.224-2.337 5.224-5.224s-2.336-5.224-5.224-5.224h-123.044c-2.887 0-5.224 2.337-5.224 5.224s2.337 5.224 5.224 5.224z"></path><path d="m305.041 97.893c0-2.887-2.337-5.224-5.224-5.224h-166.861c-2.887 0-5.224 2.337-5.224 5.224s2.336 5.224 5.224 5.224h166.861c2.888 0 5.224-2.336 5.224-5.224z"></path></g></g></g></svg>