<!-- icon666.com - MILLIONS vector ICONS FREE --><svg id="Layer_1" viewBox="0 0 512 512" xmlns="http://www.w3.org/2000/svg" xmlns:xlink="http://www.w3.org/1999/xlink" data-name="Layer 1"><linearGradient id="GradientFill_1" gradientUnits="userSpaceOnUse" x1="256.001" x2="256.002" y1="511.978" y2="-.02"><stop offset="0" stop-color="#6c54a3"></stop><stop offset="1" stop-color="#00b1d2"></stop></linearGradient><path d="m256-.02c141.384 0 256 114.658 256 256.034s-114.614 255.964-256 255.964-256-114.587-256-255.964 114.616-256.034 256-256.034zm-111.558 166.5 12.18 17.52a15.27 15.27 0 0 1 .738 16.211 111.813 111.813 0 0 0 -10.56 25.48 15.151 15.151 0 0 1 -12.037 10.931l-20.945 3.77v31.174l21 3.779a15.242 15.242 0 0 1 11.976 10.955 113 113 0 0 0 10.574 25.5 15.223 15.223 0 0 1 -.746 16.2l-12.178 17.522 22.028 22.029 17.576-12.224.047-.032a15.178 15.178 0 0 1 16.112-.663 111.849 111.849 0 0 0 25.482 10.568 15.247 15.247 0 0 1 10.952 11.988l3.773 20.98h31.176l3.773-20.98a15.244 15.244 0 0 1 10.951-11.988 112.953 112.953 0 0 0 25.5-10.572 15.345 15.345 0 0 1 16.094.672l.1.065 17.527 12.192 22.03-22.029-12.184-17.528a15.22 15.22 0 0 1 -.747-16.193 113.309 113.309 0 0 0 10.576-25.507 15.247 15.247 0 0 1 11.983-10.957l21-3.779v-31.172l-20.944-3.77a15.15 15.15 0 0 1 -12.04-10.933 111.654 111.654 0 0 0 -10.561-25.479 15.268 15.268 0 0 1 .733-16.21l12.178-17.521-22.035-22.034-17.506 12.14a15.206 15.206 0 0 1 -16.234.777 113.064 113.064 0 0 0 -25.506-10.562 15.245 15.245 0 0 1 -10.915-11.977l-3.781-21.026h-31.16l-3.781 21.026a15.248 15.248 0 0 1 -10.916 11.977 113.1 113.1 0 0 0 -25.506 10.565 15.206 15.206 0 0 1 -16.234-.777l-17.508-12.14-22.033 22.034zm263.9 69.163a4.437 4.437 0 0 0 -3.656-4.4l-25.7-4.625a4.981 4.981 0 0 1 -4-3.628 122.437 122.437 0 0 0 -11.523-27.8 5.064 5.064 0 0 1 .248-5.4l14.907-21.45a4.373 4.373 0 0 0 -.506-5.668l-28.8-28.795a4.364 4.364 0 0 0 -5.677-.5l-21.435 14.881a5.063 5.063 0 0 1 -5.4.272 121.656 121.656 0 0 0 -27.8-11.518 5.128 5.128 0 0 1 -3.644-3.991l-4.623-25.711a4.379 4.379 0 0 0 -4.374-3.673h-40.717a4.379 4.379 0 0 0 -4.374 3.673l-4.623 25.711a5.128 5.128 0 0 1 -3.645 3.991 121.7 121.7 0 0 0 -27.8 11.518 5.062 5.062 0 0 1 -5.4-.272l-21.449-14.874a4.366 4.366 0 0 0 -5.678.5l-28.793 28.795a4.373 4.373 0 0 0 -.507 5.668l14.908 21.45a5.066 5.066 0 0 1 .248 5.4 122.622 122.622 0 0 0 -11.524 27.8 4.984 4.984 0 0 1 -3.994 3.628l-25.7 4.625a4.435 4.435 0 0 0 -3.656 4.4v40.721a4.353 4.353 0 0 0 3.656 4.353l25.7 4.626a5.1 5.1 0 0 1 3.994 3.673 124.036 124.036 0 0 0 11.524 27.8 5.07 5.07 0 0 1 -.248 5.4l-14.908 21.45a4.377 4.377 0 0 0 .507 5.668l28.793 28.8a4.365 4.365 0 0 0 5.678.5l21.449-14.941a5.173 5.173 0 0 1 2.9-.907 4.976 4.976 0 0 1 2.5.68 123.43 123.43 0 0 0 27.8 11.518 5.064 5.064 0 0 1 3.642 3.99l4.623 25.712a4.382 4.382 0 0 0 4.374 3.628h40.719a4.382 4.382 0 0 0 4.374-3.628l4.623-25.712a5.064 5.064 0 0 1 3.644-3.99 123.752 123.752 0 0 0 27.8-11.518 5.152 5.152 0 0 1 5.4.227l21.448 14.918a4.364 4.364 0 0 0 5.677-.5l28.8-28.8a4.378 4.378 0 0 0 .506-5.668l-14.907-21.45a5.068 5.068 0 0 1 -.248-5.4 124.413 124.413 0 0 0 11.525-27.786 5.1 5.1 0 0 1 3.994-3.673l25.7-4.626a4.355 4.355 0 0 0 3.656-4.353v-40.721zm10.157 0a14.609 14.609 0 0 0 -12.015-14.375l-22.6-4.081a133.167 133.167 0 0 0 -10.033-24.17l13.11-18.864a14.63 14.63 0 0 0 -1.665-18.683l-28.786-28.797a14.6 14.6 0 0 0 -18.656-1.632l-18.86 13.1a130.617 130.617 0 0 0 -24.2-10.021l-4.063-22.62a14.614 14.614 0 0 0 -14.37-12.017h-40.719a14.612 14.612 0 0 0 -14.369 12.017l-4.066 22.628a130.589 130.589 0 0 0 -24.2 10.021l-18.86-13.1a14.6 14.6 0 0 0 -18.656 1.632l-28.791 28.787a14.628 14.628 0 0 0 -1.665 18.683l13.11 18.864a133.453 133.453 0 0 0 -10.033 24.17l-22.6 4.081a14.607 14.607 0 0 0 -12.012 14.375v40.721a14.607 14.607 0 0 0 12.015 14.375l22.6 4.036a132.2 132.2 0 0 0 10.033 24.215l-13.11 18.864a14.56 14.56 0 0 0 1.665 18.637l28.793 28.8a14.552 14.552 0 0 0 18.656 1.677l18.86-13.1a133.449 133.449 0 0 0 24.2 10.022l4.066 22.582a14.569 14.569 0 0 0 14.369 12.017h40.719a14.571 14.571 0 0 0 14.37-12.017l4.065-22.582a133.8 133.8 0 0 0 24.2-10.022l18.86 13.1a14.552 14.552 0 0 0 18.656-1.677l28.793-28.8a14.562 14.562 0 0 0 1.665-18.637l-13.11-18.864a132.55 132.55 0 0 0 10.033-24.215l22.6-4.036a14.609 14.609 0 0 0 12.002-14.375v-40.721zm-107.584 84.657h27.811a5.079 5.079 0 0 0 0-10.158h-16.252a86.243 86.243 0 1 0 -24.923 21.268 5.082 5.082 0 1 0 -5.01-8.843 76.546 76.546 0 1 1 23.451-20.632v-14.508a5.078 5.078 0 1 0 -10.156 0v27.8a5.075 5.075 0 0 0 5.079 5.073z" fill="url(#GradientFill_1)" fill-rule="evenodd"></path></svg>