<!-- icon666.com - MILLIONS vector ICONS FREE --><svg id="Layer_1" viewBox="0 0 512 512" xmlns="http://www.w3.org/2000/svg" xmlns:xlink="http://www.w3.org/1999/xlink" data-name="Layer 1"><linearGradient id="GradientFill_1" gradientUnits="userSpaceOnUse" x1="256.002" x2="256.003" y1="511.999"><stop offset="0" stop-color="#6c54a3"></stop><stop offset="1" stop-color="#00b1d2"></stop></linearGradient><path d="m256 0c141.381 0 256 114.587 256 256.035 0 141.376-114.619 255.965-256 255.965s-256-114.589-256-255.965c0-141.448 114.614-256.035 256-256.035zm-134.076 219.745v36a3.267 3.267 0 0 0 2.748 3.265l22.714 4.081a5.1 5.1 0 0 1 4 3.673 107.683 107.683 0 0 0 10.13 24.4 5.148 5.148 0 0 1 -.244 5.441l-13.178 18.955a3.291 3.291 0 0 0 .381 4.263l25.453 25.439a3.31 3.31 0 0 0 4.262.408l18.959-13.2a5.071 5.071 0 0 1 5.406-.272c1.079.635 2.181 1.224 3.288 1.814a44.8 44.8 0 0 0 -11.464-22.537 84.528 84.528 0 1 1 124.7 0 44.947 44.947 0 0 0 -11.292 21.676c.558-.318 1.125-.635 1.673-.953a5.061 5.061 0 0 1 5.4.272l18.964 13.2a3.312 3.312 0 0 0 4.263-.408l25.457-25.439a3.3 3.3 0 0 0 .381-4.263l-13.177-18.955a5.126 5.126 0 0 1 -.25-5.441 108.048 108.048 0 0 0 10.13-24.4 5.108 5.108 0 0 1 4-3.673l22.718-4.081a3.267 3.267 0 0 0 2.748-3.265v-36a3.349 3.349 0 0 0 -2.748-3.311l-22.718-4.081a5.05 5.05 0 0 1 -4-3.628 108.36 108.36 0 0 0 -10.13-24.441 5.045 5.045 0 0 1 .25-5.4l13.177-18.955a3.285 3.285 0 0 0 -.381-4.262l-25.457-25.485a3.3 3.3 0 0 0 -4.263-.362l-18.964 13.195a5.15 5.15 0 0 1 -5.4.227 108.58 108.58 0 0 0 -24.437-10.112 5.118 5.118 0 0 1 -3.646-4.036l-4.085-22.674a3.3 3.3 0 0 0 -3.292-2.763h-35.994a3.3 3.3 0 0 0 -3.287 2.766l-4.086 22.677a5.131 5.131 0 0 1 -3.646 4.036 108.7 108.7 0 0 0 -24.437 10.112 5.159 5.159 0 0 1 -5.406-.227l-18.959-13.195a3.311 3.311 0 0 0 -4.267.362l-25.448 25.482a3.28 3.28 0 0 0 -.381 4.262l13.178 18.955a5.067 5.067 0 0 1 .244 5.4 108.222 108.222 0 0 0 -10.13 24.441 5.049 5.049 0 0 1 -4 3.628l-22.714 4.081a3.349 3.349 0 0 0 -2.748 3.311zm.948 49.291 19.621 3.492a118.292 118.292 0 0 0 8.638 20.86l-11.386 16.369a13.472 13.472 0 0 0 1.542 17.232l25.453 25.44a13.443 13.443 0 0 0 17.245 1.541l16.375-11.382c2.063 1.134 4.162 2.132 6.285 3.13v21.947a18.8 18.8 0 0 0 18.333 18.773v.318a31.743 31.743 0 1 0 63.485 0v-.318a18.8 18.8 0 0 0 18.337-18.773v-22.628c1.628-.771 3.251-1.587 4.843-2.449l16.379 11.382a13.371 13.371 0 0 0 17.241-1.541l25.453-25.44a13.477 13.477 0 0 0 1.541-17.232l-11.386-16.369a119.057 119.057 0 0 0 8.639-20.86l19.621-3.492a13.511 13.511 0 0 0 11.105-13.286v-36a13.477 13.477 0 0 0 -11.105-13.287l-19.621-3.537a116.1 116.1 0 0 0 -8.639-20.814l11.386-16.37a13.533 13.533 0 0 0 -1.541-17.277l-25.453-25.439a13.492 13.492 0 0 0 -17.241-1.542l-16.377 11.376a116.2 116.2 0 0 0 -20.832-8.615l-3.528-19.635a13.491 13.491 0 0 0 -13.285-11.11h-35.994a13.482 13.482 0 0 0 -13.282 11.11l-3.532 19.635a116.051 116.051 0 0 0 -20.832 8.615l-16.375-11.381a13.5 13.5 0 0 0 -17.245 1.542l-25.453 25.439a13.522 13.522 0 0 0 -1.537 17.277l11.381 16.37a116.755 116.755 0 0 0 -8.638 20.814l-19.621 3.537a13.478 13.478 0 0 0 -11.106 13.287v36a13.512 13.512 0 0 0 11.106 13.286zm173.772 84.164q.09-5.6 0-10.157h-34.658v-58.18a20.1 20.1 0 1 0 -10.153.454v57.726h-35.033v10.157zm-40.644-77.589a9.908 9.908 0 1 0 -9.9-9.885 9.912 9.912 0 0 0 9.9 9.885z" fill="url(#GradientFill_1)" fill-rule="evenodd"></path></svg>