<!-- icon666.com - MILLIONS vector ICONS FREE --><svg id="Layer_1" enable-background="new 0 0 512 512" viewBox="0 0 512 512" xmlns="http://www.w3.org/2000/svg" xmlns:xlink="http://www.w3.org/1999/xlink"><linearGradient id="SVGID_1_" gradientUnits="userSpaceOnUse" x1="85.496" x2="474.519" y1="474.518" y2="85.496"><stop offset="0" stop-color="#57ffd9"></stop><stop offset=".1339" stop-color="#4fe4e0"></stop><stop offset=".4257" stop-color="#3faded"></stop><stop offset=".6778" stop-color="#3485f7"></stop><stop offset=".8776" stop-color="#2d6dfd"></stop><stop offset="1" stop-color="#2a64ff"></stop></linearGradient><path d="m429.786 52.708h-23.325v-23.324c0-15.927-12.957-28.884-28.884-28.884h-199.318c-7.827 0-14.891 2.925-20.425 8.459l-96.043 96.045c-5.534 5.535-8.46 12.597-8.46 20.423v304.981c0 15.926 12.957 28.883 28.884 28.883h23.325v23.325c0 15.926 12.957 28.883 28.883 28.883h295.363c15.926 0 28.883-12.957 28.883-28.883v-401.025c0-15.926-12.957-28.883-28.883-28.883zm-268.178-24.895v70.11c0 5.986-4.87 10.855-10.855 10.855h-70.108zm-92.277 402.596v-304.981c0-.222.019-.433.027-.649h81.395c14.809 0 26.855-12.047 26.855-26.855v-81.397c.217-.009.429-.027.65-.027h199.318c7.104 0 12.884 5.78 12.884 12.884v401.025c0 7.104-5.779 12.883-12.884 12.883h-295.361c-7.105 0-12.884-5.779-12.884-12.883zm373.338 52.208c0 7.104-5.779 12.883-12.883 12.883h-295.363c-7.104 0-12.883-5.779-12.883-12.883v-23.325h256.037c15.927 0 28.884-12.957 28.884-28.883v-361.701h23.325c7.104 0 12.883 5.779 12.883 12.883zm-85.941-285.003c0 4.418-3.582 8-8 8h-237.665c-4.418 0-8-3.582-8-8s3.582-8 8-8h237.664c4.419 0 8.001 3.582 8.001 8zm0-45.592c0 4.418-3.582 8-8 8h-237.665c-4.418 0-8-3.582-8-8s3.582-8 8-8h237.664c4.419 0 8.001 3.582 8.001 8zm0-45.591c0 4.418-3.582 8-8 8h-133.742c-4.418 0-8-3.582-8-8s3.582-8 8-8h133.741c4.419 0 8.001 3.581 8.001 8zm0-45.591c0 4.418-3.582 8-8 8h-133.742c-4.418 0-8-3.582-8-8s3.582-8 8-8h133.741c4.419 0 8.001 3.581 8.001 8zm-28.782 242.686h-16.421c-1.667-5.599-3.901-10.993-6.685-16.13l11.614-11.614c3.124-3.124 3.124-8.189 0-11.313l-23.139-23.139c-3.124-3.123-8.188-3.125-11.314 0l-11.613 11.614c-5.14-2.785-10.533-5.02-16.13-6.685v-16.42c0-4.418-3.582-8-8-8h-32.725c-4.418 0-8 3.582-8 8v16.42c-5.598 1.666-10.991 3.9-16.13 6.684l-11.612-11.613c-3.123-3.124-8.188-3.125-11.313 0l-23.14 23.139c-1.501 1.5-2.344 3.535-2.344 5.657s.843 4.156 2.343 5.657l11.614 11.614c-2.784 5.14-5.019 10.533-6.684 16.13h-16.422c-4.418 0-8 3.582-8 8v32.724c0 4.418 3.582 8 8 8h16.422c1.666 5.598 3.9 10.992 6.684 16.13l-11.613 11.613c-1.501 1.5-2.344 3.535-2.344 5.657s.843 4.157 2.343 5.657l23.14 23.14c1.501 1.5 3.535 2.343 5.657 2.343s4.156-.843 5.657-2.343l11.612-11.614c5.141 2.785 10.533 5.02 16.13 6.685v16.421c0 4.418 3.582 8 8 8h32.725c4.418 0 8-3.582 8-8v-16.421c5.597-1.666 10.99-3.9 16.13-6.684l11.612 11.614c1.501 1.5 3.535 2.343 5.657 2.343s4.156-.843 5.657-2.343l23.14-23.14c1.5-1.5 2.343-3.535 2.343-5.657s-.843-4.157-2.344-5.657l-11.613-11.613c2.785-5.14 5.02-10.533 6.685-16.13h16.421c4.418 0 8-3.582 8-8v-32.724c0-4.42-3.582-8.002-8-8.002zm-8 32.724h-14.623c-3.768 0-7.024 2.629-7.819 6.312-1.752 8.11-4.924 15.767-9.43 22.755-2.042 3.167-1.597 7.328 1.067 9.992l10.343 10.342-11.826 11.826-10.342-10.343c-2.663-2.664-6.825-3.109-9.992-1.067-6.987 4.505-14.643 7.677-22.754 9.428-3.683.795-6.312 4.052-6.312 7.82v14.624h-16.725v-14.624c0-3.768-2.629-7.025-6.313-7.82-8.108-1.75-15.764-4.922-22.753-9.428-3.167-2.043-7.329-1.597-9.992 1.067l-10.342 10.343-11.826-11.826 10.343-10.342c2.664-2.664 3.109-6.826 1.067-9.992-4.503-6.985-7.676-14.641-9.429-22.756-.795-3.682-4.052-6.311-7.819-6.311h-14.624v-16.724h14.624c3.768 0 7.024-2.629 7.819-6.312 1.752-8.111 4.924-15.766 9.429-22.754 2.041-3.167 1.597-7.328-1.066-9.992l-10.344-10.343 11.826-11.825 10.342 10.342c2.663 2.664 6.825 3.108 9.992 1.067 6.986-4.504 14.642-7.677 22.754-9.428 3.683-.795 6.312-4.052 6.312-7.82v-14.623h16.725v14.623c0 3.768 2.629 7.024 6.312 7.82 8.109 1.751 15.765 4.923 22.754 9.429 3.167 2.043 7.329 1.596 9.992-1.067l10.343-10.343 11.825 11.825-10.344 10.343c-2.664 2.664-3.108 6.826-1.065 9.993 4.502 6.981 7.674 14.637 9.429 22.754.796 3.682 4.053 6.31 7.819 6.31h14.623zm-90.05-59.458c-28.175 0-51.097 22.921-51.097 51.096s22.922 51.097 51.097 51.097 51.097-22.922 51.097-51.097-22.922-51.096-51.097-51.096zm0 86.192c-19.353 0-35.097-15.744-35.097-35.097 0-19.352 15.744-35.096 35.097-35.096s35.097 15.744 35.097 35.096c0 19.353-15.744 35.097-35.097 35.097z" fill="url(#SVGID_1_)"></path></svg>